# xmcd CD database file generated by OrangeCD 6.3
#
# Track frame offsets:
#	150
#	9780
#	32895
#	49564
#	74287
#	87837
#	97747
#	124250
#	128185
#	139562
#	179890
#	184000
#	193785
#	205070
#
# Disc length: 2911 seconds
#
# Revision: 1
# Processed by: cddbd v1.5.2PL0 Copyright (c) Steve Scherf et al.
# Submitted via: OrangeCD 6.3
#
DISCID=bc0b5d0e
DTITLE=James Brown - Gold Collection
DYEAR=1998
DGENRE=R&B
TTITLE0=Give It Up, Turn It Loose
TTITLE1=Too Funky In Here
TTITLE2=Gonna Have A Funky Good Time
TTITLE3=Try Me
TTITLE4=Get On The Good Foot
TTITLE5=Get Up Offa That Thing
TTITLE6=Georgia On My Mind
TTITLE7=Hot Pants
TTITLE8=I Got The Feeling
TTITLE9=Its A Man's Man's Man's World
TTITLE10=Cold Sweat
TTITLE11=I Can't Stand It
TTITLE12=Papa's Got A Brand New Bag
TTITLE13=I Feel Good
EXTD=
EXTT0=
EXTT1=
EXTT2=
EXTT3=
EXTT4=
EXTT5=
EXTT6=
EXTT7=
EXTT8=
EXTT9=
EXTT10=
EXTT11=
EXTT12=
EXTT13=
PLAYORDER=
